<?xml version="1.0" encoding="UTF-8"?>

<svg xmlns="http://www.w3.org/2000/svg" width="1200" height="500" viewBox="0 0 1200 500" preserveAspectRatio="xMidYMid slice">
  <defs>
    <filter id="g-rv" x="-2%" y="-2%" width="104%" height="104%">
      <feTurbulence type="fractalNoise" baseFrequency="1.4" numOctaves="2" seed="7"></feTurbulence>
      <feColorMatrix values="0 0 0 0 0.45  0 0 0 0 0.38  0 0 0 0 0.28  0 0 0 0.06 0"></feColorMatrix>
    </filter>
  </defs>
  <rect width="1200" height="500" fill="#F4ECD9"></rect>
  <g opacity="0.4">
    <ellipse cx="200" cy="220" rx="240" ry="34" fill="#8FA890"></ellipse>
    <ellipse cx="700" cy="200" rx="320" ry="40" fill="#7A9580"></ellipse>
    <ellipse cx="1100" cy="220" rx="200" ry="30" fill="#6C8270"></ellipse>
  </g>
  <g opacity="0.55">
    <path d="M 0 280 Q 200 270 400 290 Q 600 320 800 340 Q 1000 360 1200 360 L 1200 410 Q 1000 410 800 400 Q 600 380 400 360 Q 200 340 0 350 Z" fill="#7A9DAE"></path>
  </g>
  <g opacity="0.5">
    <path d="M 0 410 Q 300 405 600 420 Q 900 440 1200 430 L 1200 500 L 0 500 Z" fill="#C4A87A"></path>
  </g>
  <text x="600" y="240" text-anchor="middle" font-family="Cormorant Garamond, Georgia, serif" font-weight="300" font-style="italic" font-size="36" fill="#52443A" opacity="0.55">river vista · placeholder</text>
  <text x="600" y="268" text-anchor="middle" font-family="DM Sans, sans-serif" font-weight="500" font-size="11" letter-spacing="3" fill="#52443A" opacity="0.5">REPLACE WITH HAND-PAINTED SCAN</text>
  <rect width="1200" height="500" filter="url(#g-rv)" opacity="0.5"></rect>
</svg>