<?xml version="1.0" encoding="UTF-8"?>

<svg xmlns="http://www.w3.org/2000/svg" width="1200" height="500" viewBox="0 0 1200 500" preserveAspectRatio="xMidYMid slice">
  <defs>
    <filter id="g-rh" x="-2%" y="-2%" width="104%" height="104%">
      <feTurbulence type="fractalNoise" baseFrequency="1.4" numOctaves="2" seed="17"></feTurbulence>
      <feColorMatrix values="0 0 0 0 0.45  0 0 0 0 0.38  0 0 0 0 0.28  0 0 0 0.06 0"></feColorMatrix>
    </filter>
  </defs>
  <rect width="1200" height="500" fill="#F4ECD9"></rect>
  <g opacity="0.5">
    <rect x="60" y="200" width="180" height="240" fill="#A88556"></rect>
    <rect x="240" y="180" width="180" height="260" fill="#8C5838"></rect>
    <rect x="420" y="220" width="180" height="220" fill="#C4A87A"></rect>
    <rect x="600" y="170" width="180" height="270" fill="#7E5B3C"></rect>
    <rect x="780" y="200" width="180" height="240" fill="#A88556"></rect>
    <rect x="960" y="220" width="180" height="220" fill="#6B8A9A"></rect>
  </g>
  <g opacity="0.3" fill="#F4ECD9">
    <rect x="100" y="260" width="40" height="50"></rect>
    <rect x="160" y="260" width="40" height="50"></rect>
    <rect x="280" y="240" width="40" height="50"></rect>
    <rect x="340" y="240" width="40" height="50"></rect>
    <rect x="460" y="280" width="40" height="50"></rect>
    <rect x="520" y="280" width="40" height="50"></rect>
    <rect x="640" y="230" width="40" height="50"></rect>
    <rect x="700" y="230" width="40" height="50"></rect>
    <rect x="820" y="260" width="40" height="50"></rect>
    <rect x="880" y="260" width="40" height="50"></rect>
    <rect x="1000" y="280" width="40" height="50"></rect>
    <rect x="1060" y="280" width="40" height="50"></rect>
  </g>
  <g opacity="0.35"><rect x="0" y="440" width="1200" height="60" fill="#52443A"></rect></g>
  <text x="600" y="120" text-anchor="middle" font-family="Cormorant Garamond, Georgia, serif" font-weight="300" font-style="italic" font-size="36" fill="#52443A" opacity="0.6">row houses · placeholder</text>
  <text x="600" y="148" text-anchor="middle" font-family="DM Sans, sans-serif" font-weight="500" font-size="11" letter-spacing="3" fill="#52443A" opacity="0.5">REPLACE WITH HAND-PAINTED SCAN</text>
  <rect width="1200" height="500" filter="url(#g-rh)" opacity="0.5"></rect>
</svg>