<?xml version="1.0" encoding="UTF-8"?>

<svg xmlns="http://www.w3.org/2000/svg" width="1200" height="500" viewBox="0 0 1200 500" preserveAspectRatio="xMidYMid slice">
  <defs>
    <filter id="g-ct" x="-2%" y="-2%" width="104%" height="104%">
      <feTurbulence type="fractalNoise" baseFrequency="1.4" numOctaves="2" seed="13"></feTurbulence>
      <feColorMatrix values="0 0 0 0 0.45  0 0 0 0 0.38  0 0 0 0 0.28  0 0 0 0.06 0"></feColorMatrix>
    </filter>
  </defs>
  <rect width="1200" height="500" fill="#F4ECD9"></rect>
  <g opacity="0.45" fill="#6B8A9A">
    <rect x="60" y="280" width="40" height="80"></rect>
    <rect x="120" y="240" width="50" height="120"></rect>
    <rect x="190" y="270" width="30" height="90"></rect>
    <rect x="240" y="220" width="60" height="140"></rect>
    <rect x="320" y="200" width="40" height="160"></rect>
    <rect x="380" y="240" width="50" height="120"></rect>
    <rect x="450" y="260" width="40" height="100"></rect>
    <rect x="510" y="200" width="80" height="160"></rect>
    <rect x="610" y="180" width="60" height="180"></rect>
    <rect x="690" y="220" width="50" height="140"></rect>
    <rect x="760" y="250" width="40" height="110"></rect>
    <rect x="820" y="220" width="70" height="140"></rect>
    <rect x="910" y="260" width="50" height="100"></rect>
    <rect x="980" y="240" width="60" height="120"></rect>
    <rect x="1060" y="270" width="40" height="90"></rect>
    <rect x="1120" y="250" width="50" height="110"></rect>
  </g>
  <g opacity="0.3" fill="#52443A">
    <rect x="0" y="360" width="1200" height="60"></rect>
  </g>
  <g opacity="0.35">
    <ellipse cx="600" cy="200" rx="700" ry="40" fill="#C4A87A"></ellipse>
  </g>
  <text x="600" y="140" text-anchor="middle" font-family="Cormorant Garamond, Georgia, serif" font-weight="300" font-style="italic" font-size="36" fill="#52443A" opacity="0.55">city vista · placeholder</text>
  <text x="600" y="168" text-anchor="middle" font-family="DM Sans, sans-serif" font-weight="500" font-size="11" letter-spacing="3" fill="#52443A" opacity="0.5">REPLACE WITH HAND-PAINTED SCAN</text>
  <rect width="1200" height="500" filter="url(#g-ct)" opacity="0.5"></rect>
</svg>